# Tiled2Unity generated file. Do not modify by hand.
# Wavefront file for 'level1_mesh_0008.obj'

# Vertices (Count = 772)
v -1632 -160 0
v -1664 -160 0
v -1664 -128 0
v -1632 -128 0
v -3488 -160 0
v -3520 -160 0
v -3520 -128 0
v -3488 -128 0
v -3520 -160 0
v -3552 -160 0
v -3552 -128 0
v -3520 -128 0
v -3552 -160 0
v -3584 -160 0
v -3584 -128 0
v -3552 -128 0
v -4736 -160 0
v -4768 -160 0
v -4768 -128 0
v -4736 -128 0
v -4768 -160 0
v -4800 -160 0
v -4800 -128 0
v -4768 -128 0
v -5280 -160 0
v -5312 -160 0
v -5312 -128 0
v -5280 -128 0
v -5888 -160 0
v -5920 -160 0
v -5920 -128 0
v -5888 -128 0
v -5920 -160 0
v -5952 -160 0
v -5952 -128 0
v -5920 -128 0
v -5952 -160 0
v -5984 -160 0
v -5984 -128 0
v -5952 -128 0
v -5984 -160 0
v -6016 -160 0
v -6016 -128 0
v -5984 -128 0
v -6016 -160 0
v -6048 -160 0
v -6048 -128 0
v -6016 -128 0
v -6048 -160 0
v -6080 -160 0
v -6080 -128 0
v -6048 -128 0
v 0 -192 0
v -32 -192 0
v -32 -160 0
v 0 -160 0
v -32 -192 0
v -64 -192 0
v -64 -160 0
v -32 -160 0
v -64 -192 0
v -96 -192 0
v -96 -160 0
v -64 -160 0
v -96 -192 0
v -128 -192 0
v -128 -160 0
v -96 -160 0
v -128 -192 0
v -160 -192 0
v -160 -160 0
v -128 -160 0
v -160 -192 0
v -192 -192 0
v -192 -160 0
v -160 -160 0
v -192 -192 0
v -224 -192 0
v -224 -160 0
v -192 -160 0
v -224 -192 0
v -256 -192 0
v -256 -160 0
v -224 -160 0
v -256 -192 0
v -288 -192 0
v -288 -160 0
v -256 -160 0
v -288 -192 0
v -320 -192 0
v -320 -160 0
v -288 -160 0
v -320 -192 0
v -352 -192 0
v -352 -160 0
v -320 -160 0
v -352 -192 0
v -384 -192 0
v -384 -160 0
v -352 -160 0
v -384 -192 0
v -416 -192 0
v -416 -160 0
v -384 -160 0
v -416 -192 0
v -448 -192 0
v -448 -160 0
v -416 -160 0
v -448 -192 0
v -480 -192 0
v -480 -160 0
v -448 -160 0
v -480 -192 0
v -512 -192 0
v -512 -160 0
v -480 -160 0
v -576 -192 0
v -608 -192 0
v -608 -160 0
v -576 -160 0
v -608 -192 0
v -640 -192 0
v -640 -160 0
v -608 -160 0
v -640 -192 0
v -672 -192 0
v -672 -160 0
v -640 -160 0
v -672 -192 0
v -704 -192 0
v -704 -160 0
v -672 -160 0
v -704 -192 0
v -736 -192 0
v -736 -160 0
v -704 -160 0
v -736 -192 0
v -768 -192 0
v -768 -160 0
v -736 -160 0
v -768 -192 0
v -800 -192 0
v -800 -160 0
v -768 -160 0
v -800 -192 0
v -832 -192 0
v -832 -160 0
v -800 -160 0
v -832 -192 0
v -864 -192 0
v -864 -160 0
v -832 -160 0
v -864 -192 0
v -896 -192 0
v -896 -160 0
v -864 -160 0
v -896 -192 0
v -928 -192 0
v -928 -160 0
v -896 -160 0
v -928 -192 0
v -960 -192 0
v -960 -160 0
v -928 -160 0
v -992 -192 0
v -1024 -192 0
v -1024 -160 0
v -992 -160 0
v -1024 -192 0
v -1056 -192 0
v -1056 -160 0
v -1024 -160 0
v -1056 -192 0
v -1088 -192 0
v -1088 -160 0
v -1056 -160 0
v -1088 -192 0
v -1120 -192 0
v -1120 -160 0
v -1088 -160 0
v -1120 -192 0
v -1152 -192 0
v -1152 -160 0
v -1120 -160 0
v -1152 -192 0
v -1184 -192 0
v -1184 -160 0
v -1152 -160 0
v -1184 -192 0
v -1216 -192 0
v -1216 -160 0
v -1184 -160 0
v -1216 -192 0
v -1248 -192 0
v -1248 -160 0
v -1216 -160 0
v -1248 -192 0
v -1280 -192 0
v -1280 -160 0
v -1248 -160 0
v -1280 -192 0
v -1312 -192 0
v -1312 -160 0
v -1280 -160 0
v -1312 -192 0
v -1344 -192 0
v -1344 -160 0
v -1312 -160 0
v -1344 -192 0
v -1376 -192 0
v -1376 -160 0
v -1344 -160 0
v -1376 -192 0
v -1408 -192 0
v -1408 -160 0
v -1376 -160 0
v -1408 -192 0
v -1440 -192 0
v -1440 -160 0
v -1408 -160 0
v -1440 -192 0
v -1472 -192 0
v -1472 -160 0
v -1440 -160 0
v -1472 -192 0
v -1504 -192 0
v -1504 -160 0
v -1472 -160 0
v -1504 -192 0
v -1536 -192 0
v -1536 -160 0
v -1504 -160 0
v -1536 -192 0
v -1568 -192 0
v -1568 -160 0
v -1536 -160 0
v -1568 -192 0
v -1600 -192 0
v -1600 -160 0
v -1568 -160 0
v -1600 -192 0
v -1632 -192 0
v -1632 -160 0
v -1600 -160 0
v -1632 -192 0
v -1664 -192 0
v -1664 -160 0
v -1632 -160 0
v -1696 -192 0
v -1728 -192 0
v -1728 -160 0
v -1696 -160 0
v -1728 -192 0
v -1760 -192 0
v -1760 -160 0
v -1728 -160 0
v -1760 -192 0
v -1792 -192 0
v -1792 -160 0
v -1760 -160 0
v -1792 -192 0
v -1824 -192 0
v -1824 -160 0
v -1792 -160 0
v -1888 -192 0
v -1920 -192 0
v -1920 -160 0
v -1888 -160 0
v -1920 -192 0
v -1952 -192 0
v -1952 -160 0
v -1920 -160 0
v -1952 -192 0
v -1984 -192 0
v -1984 -160 0
v -1952 -160 0
v -1984 -192 0
v -2016 -192 0
v -2016 -160 0
v -1984 -160 0
v -2016 -192 0
v -2048 -192 0
v -2048 -160 0
v -2016 -160 0
v -2048 -192 0
v -2080 -192 0
v -2080 -160 0
v -2048 -160 0
v -2080 -192 0
v -2112 -192 0
v -2112 -160 0
v -2080 -160 0
v -2112 -192 0
v -2144 -192 0
v -2144 -160 0
v -2112 -160 0
v -2144 -192 0
v -2176 -192 0
v -2176 -160 0
v -2144 -160 0
v -2176 -192 0
v -2208 -192 0
v -2208 -160 0
v -2176 -160 0
v -2208 -192 0
v -2240 -192 0
v -2240 -160 0
v -2208 -160 0
v -2240 -192 0
v -2272 -192 0
v -2272 -160 0
v -2240 -160 0
v -2272 -192 0
v -2304 -192 0
v -2304 -160 0
v -2272 -160 0
v -2304 -192 0
v -2336 -192 0
v -2336 -160 0
v -2304 -160 0
v -2336 -192 0
v -2368 -192 0
v -2368 -160 0
v -2336 -160 0
v -2368 -192 0
v -2400 -192 0
v -2400 -160 0
v -2368 -160 0
v -2400 -192 0
v -2432 -192 0
v -2432 -160 0
v -2400 -160 0
v -2432 -192 0
v -2464 -192 0
v -2464 -160 0
v -2432 -160 0
v -2464 -192 0
v -2496 -192 0
v -2496 -160 0
v -2464 -160 0
v -2496 -192 0
v -2528 -192 0
v -2528 -160 0
v -2496 -160 0
v -2528 -192 0
v -2560 -192 0
v -2560 -160 0
v -2528 -160 0
v -2560 -192 0
v -2592 -192 0
v -2592 -160 0
v -2560 -160 0
v -2592 -192 0
v -2624 -192 0
v -2624 -160 0
v -2592 -160 0
v -2624 -192 0
v -2656 -192 0
v -2656 -160 0
v -2624 -160 0
v -2656 -192 0
v -2688 -192 0
v -2688 -160 0
v -2656 -160 0
v -2688 -192 0
v -2720 -192 0
v -2720 -160 0
v -2688 -160 0
v -2720 -192 0
v -2752 -192 0
v -2752 -160 0
v -2720 -160 0
v -2752 -192 0
v -2784 -192 0
v -2784 -160 0
v -2752 -160 0
v -2784 -192 0
v -2816 -192 0
v -2816 -160 0
v -2784 -160 0
v -2816 -192 0
v -2848 -192 0
v -2848 -160 0
v -2816 -160 0
v -2848 -192 0
v -2880 -192 0
v -2880 -160 0
v -2848 -160 0
v -2880 -192 0
v -2912 -192 0
v -2912 -160 0
v -2880 -160 0
v -2912 -192 0
v -2944 -192 0
v -2944 -160 0
v -2912 -160 0
v -2944 -192 0
v -2976 -192 0
v -2976 -160 0
v -2944 -160 0
v -2976 -192 0
v -3008 -192 0
v -3008 -160 0
v -2976 -160 0
v -3008 -192 0
v -3040 -192 0
v -3040 -160 0
v -3008 -160 0
v -3104 -192 0
v -3136 -192 0
v -3136 -160 0
v -3104 -160 0
v -3136 -192 0
v -3168 -192 0
v -3168 -160 0
v -3136 -160 0
v -3168 -192 0
v -3200 -192 0
v -3200 -160 0
v -3168 -160 0
v -3200 -192 0
v -3232 -192 0
v -3232 -160 0
v -3200 -160 0
v -3232 -192 0
v -3264 -192 0
v -3264 -160 0
v -3232 -160 0
v -3264 -192 0
v -3296 -192 0
v -3296 -160 0
v -3264 -160 0
v -3296 -192 0
v -3328 -192 0
v -3328 -160 0
v -3296 -160 0
v -3360 -192 0
v -3392 -192 0
v -3392 -160 0
v -3360 -160 0
v -3392 -192 0
v -3424 -192 0
v -3424 -160 0
v -3392 -160 0
v -3424 -192 0
v -3456 -192 0
v -3456 -160 0
v -3424 -160 0
v -3456 -192 0
v -3488 -192 0
v -3488 -160 0
v -3456 -160 0
v -3488 -192 0
v -3520 -192 0
v -3520 -160 0
v -3488 -160 0
v -3520 -192 0
v -3552 -192 0
v -3552 -160 0
v -3520 -160 0
v -3552 -192 0
v -3584 -192 0
v -3584 -160 0
v -3552 -160 0
v -3616 -192 0
v -3648 -192 0
v -3648 -160 0
v -3616 -160 0
v -3648 -192 0
v -3680 -192 0
v -3680 -160 0
v -3648 -160 0
v -3680 -192 0
v -3712 -192 0
v -3712 -160 0
v -3680 -160 0
v -3712 -192 0
v -3744 -192 0
v -3744 -160 0
v -3712 -160 0
v -3744 -192 0
v -3776 -192 0
v -3776 -160 0
v -3744 -160 0
v -3776 -192 0
v -3808 -192 0
v -3808 -160 0
v -3776 -160 0
v -3808 -192 0
v -3840 -192 0
v -3840 -160 0
v -3808 -160 0
v -3872 -192 0
v -3904 -192 0
v -3904 -160 0
v -3872 -160 0
v -3904 -192 0
v -3936 -192 0
v -3936 -160 0
v -3904 -160 0
v -3936 -192 0
v -3968 -192 0
v -3968 -160 0
v -3936 -160 0
v -3968 -192 0
v -4000 -192 0
v -4000 -160 0
v -3968 -160 0
v -4000 -192 0
v -4032 -192 0
v -4032 -160 0
v -4000 -160 0
v -4032 -192 0
v -4064 -192 0
v -4064 -160 0
v -4032 -160 0
v -4064 -192 0
v -4096 -192 0
v -4096 -160 0
v -4064 -160 0
v -4128 -192 0
v -4160 -192 0
v -4160 -160 0
v -4128 -160 0
v -4160 -192 0
v -4192 -192 0
v -4192 -160 0
v -4160 -160 0
v -4192 -192 0
v -4224 -192 0
v -4224 -160 0
v -4192 -160 0
v -4224 -192 0
v -4256 -192 0
v -4256 -160 0
v -4224 -160 0
v -4320 -192 0
v -4352 -192 0
v -4352 -160 0
v -4320 -160 0
v -4352 -192 0
v -4384 -192 0
v -4384 -160 0
v -4352 -160 0
v -4384 -192 0
v -4416 -192 0
v -4416 -160 0
v -4384 -160 0
v -4416 -192 0
v -4448 -192 0
v -4448 -160 0
v -4416 -160 0
v -4448 -192 0
v -4480 -192 0
v -4480 -160 0
v -4448 -160 0
v -4480 -192 0
v -4512 -192 0
v -4512 -160 0
v -4480 -160 0
v -4512 -192 0
v -4544 -192 0
v -4544 -160 0
v -4512 -160 0
v -4544 -192 0
v -4576 -192 0
v -4576 -160 0
v -4544 -160 0
v -4608 -192 0
v -4640 -192 0
v -4640 -160 0
v -4608 -160 0
v -4640 -192 0
v -4672 -192 0
v -4672 -160 0
v -4640 -160 0
v -4672 -192 0
v -4704 -192 0
v -4704 -160 0
v -4672 -160 0
v -4704 -192 0
v -4736 -192 0
v -4736 -160 0
v -4704 -160 0
v -4736 -192 0
v -4768 -192 0
v -4768 -160 0
v -4736 -160 0
v -4768 -192 0
v -4800 -192 0
v -4800 -160 0
v -4768 -160 0
v -4800 -192 0
v -4832 -192 0
v -4832 -160 0
v -4800 -160 0
v -4832 -192 0
v -4864 -192 0
v -4864 -160 0
v -4832 -160 0
v -4864 -192 0
v -4896 -192 0
v -4896 -160 0
v -4864 -160 0
v -4896 -192 0
v -4928 -192 0
v -4928 -160 0
v -4896 -160 0
v -4928 -192 0
v -4960 -192 0
v -4960 -160 0
v -4928 -160 0
v -4960 -192 0
v -4992 -192 0
v -4992 -160 0
v -4960 -160 0
v -4992 -192 0
v -5024 -192 0
v -5024 -160 0
v -4992 -160 0
v -5024 -192 0
v -5056 -192 0
v -5056 -160 0
v -5024 -160 0
v -5056 -192 0
v -5088 -192 0
v -5088 -160 0
v -5056 -160 0
v -5088 -192 0
v -5120 -192 0
v -5120 -160 0
v -5088 -160 0
v -5152 -192 0
v -5184 -192 0
v -5184 -160 0
v -5152 -160 0
v -5184 -192 0
v -5216 -192 0
v -5216 -160 0
v -5184 -160 0
v -5216 -192 0
v -5248 -192 0
v -5248 -160 0
v -5216 -160 0
v -5248 -192 0
v -5280 -192 0
v -5280 -160 0
v -5248 -160 0
v -5280 -192 0
v -5312 -192 0
v -5312 -160 0
v -5280 -160 0
v -5312 -192 0
v -5344 -192 0
v -5344 -160 0
v -5312 -160 0
v -5344 -192 0
v -5376 -192 0
v -5376 -160 0
v -5344 -160 0
v -5376 -192 0
v -5408 -192 0
v -5408 -160 0
v -5376 -160 0
v -5472 -192 0
v -5504 -192 0
v -5504 -160 0
v -5472 -160 0
v -5504 -192 0
v -5536 -192 0
v -5536 -160 0
v -5504 -160 0
v -5536 -192 0
v -5568 -192 0
v -5568 -160 0
v -5536 -160 0
v -5568 -192 0
v -5600 -192 0
v -5600 -160 0
v -5568 -160 0
v -5664 -192 0
v -5696 -192 0
v -5696 -160 0
v -5664 -160 0
v -5696 -192 0
v -5728 -192 0
v -5728 -160 0
v -5696 -160 0
v -5728 -192 0
v -5760 -192 0
v -5760 -160 0
v -5728 -160 0
v -5760 -192 0
v -5792 -192 0
v -5792 -160 0
v -5760 -160 0
v -5792 -192 0
v -5824 -192 0
v -5824 -160 0
v -5792 -160 0
v -5824 -192 0
v -5856 -192 0
v -5856 -160 0
v -5824 -160 0
v -5856 -192 0
v -5888 -192 0
v -5888 -160 0
v -5856 -160 0
v -5888 -192 0
v -5920 -192 0
v -5920 -160 0
v -5888 -160 0
v -5920 -192 0
v -5952 -192 0
v -5952 -160 0
v -5920 -160 0
v -5952 -192 0
v -5984 -192 0
v -5984 -160 0
v -5952 -160 0
v -5984 -192 0
v -6016 -192 0
v -6016 -160 0
v -5984 -160 0
v -6016 -192 0
v -6048 -192 0
v -6048 -160 0
v -6016 -160 0
v -6048 -192 0
v -6080 -192 0
v -6080 -160 0
v -6048 -160 0
v -6080 -192 0
v -6112 -192 0
v -6112 -160 0
v -6080 -160 0
v -6112 -192 0
v -6144 -192 0
v -6144 -160 0
v -6112 -160 0
v -6144 -192 0
v -6176 -192 0
v -6176 -160 0
v -6144 -160 0
v -6176 -192 0
v -6208 -192 0
v -6208 -160 0
v -6176 -160 0
v -6208 -192 0
v -6240 -192 0
v -6240 -160 0
v -6208 -160 0
v -6240 -192 0
v -6272 -192 0
v -6272 -160 0
v -6240 -160 0
v -6272 -192 0
v -6304 -192 0
v -6304 -160 0
v -6272 -160 0
v -6304 -192 0
v -6336 -192 0
v -6336 -160 0
v -6304 -160 0
v -6336 -192 0
v -6368 -192 0
v -6368 -160 0
v -6336 -160 0
v -6368 -192 0
v -6400 -192 0
v -6400 -160 0
v -6368 -160 0

# Texture cooridinates (Count = 18)
vt 0.4 0.6666666
vt 0.5 0.6666666
vt 0.5 0.8333333
vt 0.4 0.8333333
vt 0 0.3333333
vt 0.1 0.3333333
vt 0.1 0.5
vt 0 0.5
vt 0.2 0.3333333
vt 0.2 0.5
vt 0.3 0.3333333
vt 0.3 0.5
vt 0 0
vt 0.1 0
vt 0.1 0.1666667
vt 0 0.1666667
vt 0.4 0.5
vt 0.5 0.5

# Normal
vn 0 0 -1

# Mesh description
g level1_mesh_0008

# Faces
f 1/1/1 2/2/1 3/3/1 4/4/1
f 5/1/1 6/2/1 7/3/1 8/4/1
f 9/5/1 10/6/1 11/7/1 12/8/1
f 13/1/1 14/2/1 15/3/1 16/4/1
f 17/1/1 18/2/1 19/3/1 20/4/1
f 21/5/1 22/6/1 23/7/1 24/8/1
f 25/1/1 26/2/1 27/3/1 28/4/1
f 29/1/1 30/2/1 31/3/1 32/4/1
f 33/1/1 34/2/1 35/3/1 36/4/1
f 37/5/1 38/6/1 39/7/1 40/8/1
f 41/6/1 42/9/1 43/10/1 44/7/1
f 45/9/1 46/11/1 47/12/1 48/10/1
f 49/1/1 50/2/1 51/3/1 52/4/1
f 53/1/1 54/2/1 55/3/1 56/4/1
f 57/1/1 58/2/1 59/3/1 60/4/1
f 61/1/1 62/2/1 63/3/1 64/4/1
f 65/1/1 66/2/1 67/3/1 68/4/1
f 69/1/1 70/2/1 71/3/1 72/4/1
f 73/1/1 74/2/1 75/3/1 76/4/1
f 77/1/1 78/2/1 79/3/1 80/4/1
f 81/1/1 82/2/1 83/3/1 84/4/1
f 85/1/1 86/2/1 87/3/1 88/4/1
f 89/1/1 90/2/1 91/3/1 92/4/1
f 93/1/1 94/2/1 95/3/1 96/4/1
f 97/1/1 98/2/1 99/3/1 100/4/1
f 101/1/1 102/2/1 103/3/1 104/4/1
f 105/1/1 106/2/1 107/3/1 108/4/1
f 109/1/1 110/2/1 111/3/1 112/4/1
f 113/1/1 114/2/1 115/3/1 116/4/1
f 117/1/1 118/2/1 119/3/1 120/4/1
f 121/1/1 122/2/1 123/3/1 124/4/1
f 125/1/1 126/2/1 127/3/1 128/4/1
f 129/1/1 130/2/1 131/3/1 132/4/1
f 133/1/1 134/2/1 135/3/1 136/4/1
f 137/1/1 138/2/1 139/3/1 140/4/1
f 141/1/1 142/2/1 143/3/1 144/4/1
f 145/1/1 146/2/1 147/3/1 148/4/1
f 149/1/1 150/2/1 151/3/1 152/4/1
f 153/1/1 154/2/1 155/3/1 156/4/1
f 157/1/1 158/2/1 159/3/1 160/4/1
f 161/1/1 162/2/1 163/3/1 164/4/1
f 165/1/1 166/2/1 167/3/1 168/4/1
f 169/1/1 170/2/1 171/3/1 172/4/1
f 173/1/1 174/2/1 175/3/1 176/4/1
f 177/1/1 178/2/1 179/3/1 180/4/1
f 181/1/1 182/2/1 183/3/1 184/4/1
f 185/1/1 186/2/1 187/3/1 188/4/1
f 189/1/1 190/2/1 191/3/1 192/4/1
f 193/1/1 194/2/1 195/3/1 196/4/1
f 197/1/1 198/2/1 199/3/1 200/4/1
f 201/1/1 202/2/1 203/3/1 204/4/1
f 205/1/1 206/2/1 207/3/1 208/4/1
f 209/1/1 210/2/1 211/3/1 212/4/1
f 213/1/1 214/2/1 215/3/1 216/4/1
f 217/1/1 218/2/1 219/3/1 220/4/1
f 221/1/1 222/2/1 223/3/1 224/4/1
f 225/1/1 226/2/1 227/3/1 228/4/1
f 229/1/1 230/2/1 231/3/1 232/4/1
f 233/1/1 234/2/1 235/3/1 236/4/1
f 237/1/1 238/2/1 239/3/1 240/4/1
f 241/1/1 242/2/1 243/3/1 244/4/1
f 245/13/1 246/14/1 247/15/1 248/16/1
f 249/1/1 250/2/1 251/3/1 252/4/1
f 253/1/1 254/2/1 255/3/1 256/4/1
f 257/1/1 258/2/1 259/3/1 260/4/1
f 261/1/1 262/2/1 263/3/1 264/4/1
f 265/1/1 266/2/1 267/3/1 268/4/1
f 269/1/1 270/2/1 271/3/1 272/4/1
f 273/1/1 274/2/1 275/3/1 276/4/1
f 277/1/1 278/2/1 279/3/1 280/4/1
f 281/1/1 282/2/1 283/3/1 284/4/1
f 285/5/1 286/6/1 287/7/1 288/8/1
f 289/1/1 290/2/1 291/3/1 292/4/1
f 293/1/1 294/2/1 295/3/1 296/4/1
f 297/1/1 298/2/1 299/3/1 300/4/1
f 301/1/1 302/2/1 303/3/1 304/4/1
f 305/1/1 306/2/1 307/3/1 308/4/1
f 309/1/1 310/2/1 311/3/1 312/4/1
f 313/1/1 314/2/1 315/3/1 316/4/1
f 317/1/1 318/2/1 319/3/1 320/4/1
f 321/13/1 322/14/1 323/15/1 324/16/1
f 325/9/1 326/11/1 327/12/1 328/10/1
f 329/1/1 330/2/1 331/3/1 332/4/1
f 333/1/1 334/2/1 335/3/1 336/4/1
f 337/1/1 338/2/1 339/3/1 340/4/1
f 341/1/1 342/2/1 343/3/1 344/4/1
f 345/1/1 346/2/1 347/3/1 348/4/1
f 349/1/1 350/2/1 351/3/1 352/4/1
f 353/1/1 354/2/1 355/3/1 356/4/1
f 357/1/1 358/2/1 359/3/1 360/4/1
f 361/1/1 362/2/1 363/3/1 364/4/1
f 365/1/1 366/2/1 367/3/1 368/4/1
f 369/1/1 370/2/1 371/3/1 372/4/1
f 373/1/1 374/2/1 375/3/1 376/4/1
f 377/1/1 378/2/1 379/3/1 380/4/1
f 381/1/1 382/2/1 383/3/1 384/4/1
f 385/1/1 386/2/1 387/3/1 388/4/1
f 389/1/1 390/2/1 391/3/1 392/4/1
f 393/1/1 394/2/1 395/3/1 396/4/1
f 397/1/1 398/2/1 399/3/1 400/4/1
f 401/1/1 402/2/1 403/3/1 404/4/1
f 405/1/1 406/2/1 407/3/1 408/4/1
f 409/1/1 410/2/1 411/3/1 412/4/1
f 413/1/1 414/2/1 415/3/1 416/4/1
f 417/1/1 418/2/1 419/3/1 420/4/1
f 421/1/1 422/2/1 423/3/1 424/4/1
f 425/13/1 426/14/1 427/15/1 428/16/1
f 429/1/1 430/2/1 431/3/1 432/4/1
f 433/5/1 434/6/1 435/7/1 436/8/1
f 437/1/1 438/2/1 439/3/1 440/4/1
f 441/1/1 442/2/1 443/3/1 444/4/1
f 445/1/1 446/2/1 447/3/1 448/4/1
f 449/5/1 450/6/1 451/7/1 452/8/1
f 453/17/1 454/18/1 455/2/1 456/1/1
f 457/17/1 458/18/1 459/2/1 460/1/1
f 461/17/1 462/18/1 463/2/1 464/1/1
f 465/1/1 466/2/1 467/3/1 468/4/1
f 469/1/1 470/2/1 471/3/1 472/4/1
f 473/1/1 474/2/1 475/3/1 476/4/1
f 477/1/1 478/2/1 479/3/1 480/4/1
f 481/1/1 482/2/1 483/3/1 484/4/1
f 485/1/1 486/2/1 487/3/1 488/4/1
f 489/1/1 490/2/1 491/3/1 492/4/1
f 493/1/1 494/2/1 495/3/1 496/4/1
f 497/1/1 498/2/1 499/3/1 500/4/1
f 501/1/1 502/2/1 503/3/1 504/4/1
f 505/13/1 506/14/1 507/15/1 508/16/1
f 509/1/1 510/2/1 511/3/1 512/4/1
f 513/1/1 514/2/1 515/3/1 516/4/1
f 517/1/1 518/2/1 519/3/1 520/4/1
f 521/1/1 522/2/1 523/3/1 524/4/1
f 525/1/1 526/2/1 527/3/1 528/4/1
f 529/1/1 530/2/1 531/3/1 532/4/1
f 533/1/1 534/2/1 535/3/1 536/4/1
f 537/1/1 538/2/1 539/3/1 540/4/1
f 541/1/1 542/2/1 543/3/1 544/4/1
f 545/1/1 546/2/1 547/3/1 548/4/1
f 549/1/1 550/2/1 551/3/1 552/4/1
f 553/1/1 554/2/1 555/3/1 556/4/1
f 557/1/1 558/2/1 559/3/1 560/4/1
f 561/1/1 562/2/1 563/3/1 564/4/1
f 565/1/1 566/2/1 567/3/1 568/4/1
f 569/1/1 570/2/1 571/3/1 572/4/1
f 573/1/1 574/2/1 575/3/1 576/4/1
f 577/1/1 578/2/1 579/3/1 580/4/1
f 581/1/1 582/2/1 583/3/1 584/4/1
f 585/13/1 586/14/1 587/15/1 588/16/1
f 589/13/1 590/14/1 591/15/1 592/16/1
f 593/13/1 594/14/1 595/15/1 596/16/1
f 597/1/1 598/2/1 599/3/1 600/4/1
f 601/1/1 602/2/1 603/3/1 604/4/1
f 605/1/1 606/2/1 607/3/1 608/4/1
f 609/1/1 610/2/1 611/3/1 612/4/1
f 613/1/1 614/2/1 615/3/1 616/4/1
f 617/1/1 618/2/1 619/3/1 620/4/1
f 621/1/1 622/2/1 623/3/1 624/4/1
f 625/1/1 626/2/1 627/3/1 628/4/1
f 629/1/1 630/2/1 631/3/1 632/4/1
f 633/1/1 634/2/1 635/3/1 636/4/1
f 637/1/1 638/2/1 639/3/1 640/4/1
f 641/1/1 642/2/1 643/3/1 644/4/1
f 645/1/1 646/2/1 647/3/1 648/4/1
f 649/13/1 650/14/1 651/15/1 652/16/1
f 653/1/1 654/2/1 655/3/1 656/4/1
f 657/1/1 658/2/1 659/3/1 660/4/1
f 661/1/1 662/2/1 663/3/1 664/4/1
f 665/1/1 666/2/1 667/3/1 668/4/1
f 669/1/1 670/2/1 671/3/1 672/4/1
f 673/1/1 674/2/1 675/3/1 676/4/1
f 677/1/1 678/2/1 679/3/1 680/4/1
f 681/1/1 682/2/1 683/3/1 684/4/1
f 685/1/1 686/2/1 687/3/1 688/4/1
f 689/1/1 690/2/1 691/3/1 692/4/1
f 693/1/1 694/2/1 695/3/1 696/4/1
f 697/1/1 698/2/1 699/3/1 700/4/1
f 701/1/1 702/2/1 703/3/1 704/4/1
f 705/5/1 706/6/1 707/7/1 708/8/1
f 709/13/1 710/14/1 711/15/1 712/16/1
f 713/13/1 714/14/1 715/15/1 716/16/1
f 717/1/1 718/2/1 719/3/1 720/4/1
f 721/1/1 722/2/1 723/3/1 724/4/1
f 725/1/1 726/2/1 727/3/1 728/4/1
f 729/13/1 730/14/1 731/15/1 732/16/1
f 733/1/1 734/2/1 735/3/1 736/4/1
f 737/1/1 738/2/1 739/3/1 740/4/1
f 741/1/1 742/2/1 743/3/1 744/4/1
f 745/1/1 746/2/1 747/3/1 748/4/1
f 749/1/1 750/2/1 751/3/1 752/4/1
f 753/1/1 754/2/1 755/3/1 756/4/1
f 757/1/1 758/2/1 759/3/1 760/4/1
f 761/1/1 762/2/1 763/3/1 764/4/1
f 765/1/1 766/2/1 767/3/1 768/4/1
f 769/1/1 770/2/1 771/3/1 772/4/1

