# Tiled2Unity generated file. Do not modify by hand.
# Wavefront file for 'level1_mesh_0007.obj'

# Vertices (Count = 912)
v -3936 -160 0
v -3968 -160 0
v -3968 -128 0
v -3936 -128 0
v -3968 -160 0
v -4000 -160 0
v -4000 -128 0
v -3968 -128 0
v -6400 -192 0
v -6432 -192 0
v -6432 -160 0
v -6400 -160 0
v -6432 -192 0
v -6464 -192 0
v -6464 -160 0
v -6432 -160 0
v -6464 -192 0
v -6496 -192 0
v -6496 -160 0
v -6464 -160 0
v -6496 -192 0
v -6528 -192 0
v -6528 -160 0
v -6496 -160 0
v -6528 -192 0
v -6560 -192 0
v -6560 -160 0
v -6528 -160 0
v -6560 -192 0
v -6592 -192 0
v -6592 -160 0
v -6560 -160 0
v -6592 -192 0
v -6624 -192 0
v -6624 -160 0
v -6592 -160 0
v -6624 -192 0
v -6656 -192 0
v -6656 -160 0
v -6624 -160 0
v -6656 -192 0
v -6688 -192 0
v -6688 -160 0
v -6656 -160 0
v -6688 -192 0
v -6720 -192 0
v -6720 -160 0
v -6688 -160 0
v -6720 -192 0
v -6752 -192 0
v -6752 -160 0
v -6720 -160 0
v -6752 -192 0
v -6784 -192 0
v -6784 -160 0
v -6752 -160 0
v -6784 -192 0
v -6816 -192 0
v -6816 -160 0
v -6784 -160 0
v 0 -224 0
v -32 -224 0
v -32 -192 0
v 0 -192 0
v -32 -224 0
v -64 -224 0
v -64 -192 0
v -32 -192 0
v -64 -224 0
v -96 -224 0
v -96 -192 0
v -64 -192 0
v -96 -224 0
v -128 -224 0
v -128 -192 0
v -96 -192 0
v -128 -224 0
v -160 -224 0
v -160 -192 0
v -128 -192 0
v -160 -224 0
v -192 -224 0
v -192 -192 0
v -160 -192 0
v -192 -224 0
v -224 -224 0
v -224 -192 0
v -192 -192 0
v -224 -224 0
v -256 -224 0
v -256 -192 0
v -224 -192 0
v -256 -224 0
v -288 -224 0
v -288 -192 0
v -256 -192 0
v -288 -224 0
v -320 -224 0
v -320 -192 0
v -288 -192 0
v -320 -224 0
v -352 -224 0
v -352 -192 0
v -320 -192 0
v -352 -224 0
v -384 -224 0
v -384 -192 0
v -352 -192 0
v -384 -224 0
v -416 -224 0
v -416 -192 0
v -384 -192 0
v -416 -224 0
v -448 -224 0
v -448 -192 0
v -416 -192 0
v -448 -224 0
v -480 -224 0
v -480 -192 0
v -448 -192 0
v -480 -224 0
v -512 -224 0
v -512 -192 0
v -480 -192 0
v -512 -224 0
v -544 -224 0
v -544 -192 0
v -512 -192 0
v -544 -224 0
v -576 -224 0
v -576 -192 0
v -544 -192 0
v -576 -224 0
v -608 -224 0
v -608 -192 0
v -576 -192 0
v -608 -224 0
v -640 -224 0
v -640 -192 0
v -608 -192 0
v -640 -224 0
v -672 -224 0
v -672 -192 0
v -640 -192 0
v -672 -224 0
v -704 -224 0
v -704 -192 0
v -672 -192 0
v -704 -224 0
v -736 -224 0
v -736 -192 0
v -704 -192 0
v -736 -224 0
v -768 -224 0
v -768 -192 0
v -736 -192 0
v -768 -224 0
v -800 -224 0
v -800 -192 0
v -768 -192 0
v -800 -224 0
v -832 -224 0
v -832 -192 0
v -800 -192 0
v -832 -224 0
v -864 -224 0
v -864 -192 0
v -832 -192 0
v -864 -224 0
v -896 -224 0
v -896 -192 0
v -864 -192 0
v -896 -224 0
v -928 -224 0
v -928 -192 0
v -896 -192 0
v -928 -224 0
v -960 -224 0
v -960 -192 0
v -928 -192 0
v -960 -224 0
v -992 -224 0
v -992 -192 0
v -960 -192 0
v -992 -224 0
v -1024 -224 0
v -1024 -192 0
v -992 -192 0
v -1024 -224 0
v -1056 -224 0
v -1056 -192 0
v -1024 -192 0
v -1056 -224 0
v -1088 -224 0
v -1088 -192 0
v -1056 -192 0
v -1088 -224 0
v -1120 -224 0
v -1120 -192 0
v -1088 -192 0
v -1120 -224 0
v -1152 -224 0
v -1152 -192 0
v -1120 -192 0
v -1152 -224 0
v -1184 -224 0
v -1184 -192 0
v -1152 -192 0
v -1184 -224 0
v -1216 -224 0
v -1216 -192 0
v -1184 -192 0
v -1216 -224 0
v -1248 -224 0
v -1248 -192 0
v -1216 -192 0
v -1248 -224 0
v -1280 -224 0
v -1280 -192 0
v -1248 -192 0
v -1280 -224 0
v -1312 -224 0
v -1312 -192 0
v -1280 -192 0
v -1312 -224 0
v -1344 -224 0
v -1344 -192 0
v -1312 -192 0
v -1344 -224 0
v -1376 -224 0
v -1376 -192 0
v -1344 -192 0
v -1376 -224 0
v -1408 -224 0
v -1408 -192 0
v -1376 -192 0
v -1408 -224 0
v -1440 -224 0
v -1440 -192 0
v -1408 -192 0
v -1440 -224 0
v -1472 -224 0
v -1472 -192 0
v -1440 -192 0
v -1472 -224 0
v -1504 -224 0
v -1504 -192 0
v -1472 -192 0
v -1504 -224 0
v -1536 -224 0
v -1536 -192 0
v -1504 -192 0
v -1536 -224 0
v -1568 -224 0
v -1568 -192 0
v -1536 -192 0
v -1568 -224 0
v -1600 -224 0
v -1600 -192 0
v -1568 -192 0
v -1600 -224 0
v -1632 -224 0
v -1632 -192 0
v -1600 -192 0
v -1632 -224 0
v -1664 -224 0
v -1664 -192 0
v -1632 -192 0
v -1664 -224 0
v -1696 -224 0
v -1696 -192 0
v -1664 -192 0
v -1696 -224 0
v -1728 -224 0
v -1728 -192 0
v -1696 -192 0
v -1728 -224 0
v -1760 -224 0
v -1760 -192 0
v -1728 -192 0
v -1760 -224 0
v -1792 -224 0
v -1792 -192 0
v -1760 -192 0
v -1792 -224 0
v -1824 -224 0
v -1824 -192 0
v -1792 -192 0
v -1824 -224 0
v -1856 -224 0
v -1856 -192 0
v -1824 -192 0
v -1856 -224 0
v -1888 -224 0
v -1888 -192 0
v -1856 -192 0
v -1888 -224 0
v -1920 -224 0
v -1920 -192 0
v -1888 -192 0
v -1920 -224 0
v -1952 -224 0
v -1952 -192 0
v -1920 -192 0
v -1952 -224 0
v -1984 -224 0
v -1984 -192 0
v -1952 -192 0
v -1984 -224 0
v -2016 -224 0
v -2016 -192 0
v -1984 -192 0
v -2016 -224 0
v -2048 -224 0
v -2048 -192 0
v -2016 -192 0
v -2048 -224 0
v -2080 -224 0
v -2080 -192 0
v -2048 -192 0
v -2080 -224 0
v -2112 -224 0
v -2112 -192 0
v -2080 -192 0
v -2112 -224 0
v -2144 -224 0
v -2144 -192 0
v -2112 -192 0
v -2144 -224 0
v -2176 -224 0
v -2176 -192 0
v -2144 -192 0
v -2176 -224 0
v -2208 -224 0
v -2208 -192 0
v -2176 -192 0
v -2208 -224 0
v -2240 -224 0
v -2240 -192 0
v -2208 -192 0
v -2240 -224 0
v -2272 -224 0
v -2272 -192 0
v -2240 -192 0
v -2272 -224 0
v -2304 -224 0
v -2304 -192 0
v -2272 -192 0
v -2304 -224 0
v -2336 -224 0
v -2336 -192 0
v -2304 -192 0
v -2336 -224 0
v -2368 -224 0
v -2368 -192 0
v -2336 -192 0
v -2368 -224 0
v -2400 -224 0
v -2400 -192 0
v -2368 -192 0
v -2400 -224 0
v -2432 -224 0
v -2432 -192 0
v -2400 -192 0
v -2432 -224 0
v -2464 -224 0
v -2464 -192 0
v -2432 -192 0
v -2464 -224 0
v -2496 -224 0
v -2496 -192 0
v -2464 -192 0
v -2496 -224 0
v -2528 -224 0
v -2528 -192 0
v -2496 -192 0
v -2528 -224 0
v -2560 -224 0
v -2560 -192 0
v -2528 -192 0
v -2560 -224 0
v -2592 -224 0
v -2592 -192 0
v -2560 -192 0
v -2592 -224 0
v -2624 -224 0
v -2624 -192 0
v -2592 -192 0
v -2624 -224 0
v -2656 -224 0
v -2656 -192 0
v -2624 -192 0
v -2656 -224 0
v -2688 -224 0
v -2688 -192 0
v -2656 -192 0
v -2688 -224 0
v -2720 -224 0
v -2720 -192 0
v -2688 -192 0
v -2720 -224 0
v -2752 -224 0
v -2752 -192 0
v -2720 -192 0
v -2752 -224 0
v -2784 -224 0
v -2784 -192 0
v -2752 -192 0
v -2784 -224 0
v -2816 -224 0
v -2816 -192 0
v -2784 -192 0
v -2816 -224 0
v -2848 -224 0
v -2848 -192 0
v -2816 -192 0
v -2848 -224 0
v -2880 -224 0
v -2880 -192 0
v -2848 -192 0
v -2880 -224 0
v -2912 -224 0
v -2912 -192 0
v -2880 -192 0
v -2912 -224 0
v -2944 -224 0
v -2944 -192 0
v -2912 -192 0
v -2944 -224 0
v -2976 -224 0
v -2976 -192 0
v -2944 -192 0
v -2976 -224 0
v -3008 -224 0
v -3008 -192 0
v -2976 -192 0
v -3008 -224 0
v -3040 -224 0
v -3040 -192 0
v -3008 -192 0
v -3040 -224 0
v -3072 -224 0
v -3072 -192 0
v -3040 -192 0
v -3072 -224 0
v -3104 -224 0
v -3104 -192 0
v -3072 -192 0
v -3104 -224 0
v -3136 -224 0
v -3136 -192 0
v -3104 -192 0
v -3136 -224 0
v -3168 -224 0
v -3168 -192 0
v -3136 -192 0
v -3168 -224 0
v -3200 -224 0
v -3200 -192 0
v -3168 -192 0
v -3200 -224 0
v -3232 -224 0
v -3232 -192 0
v -3200 -192 0
v -3232 -224 0
v -3264 -224 0
v -3264 -192 0
v -3232 -192 0
v -3264 -224 0
v -3296 -224 0
v -3296 -192 0
v -3264 -192 0
v -3296 -224 0
v -3328 -224 0
v -3328 -192 0
v -3296 -192 0
v -3328 -224 0
v -3360 -224 0
v -3360 -192 0
v -3328 -192 0
v -3360 -224 0
v -3392 -224 0
v -3392 -192 0
v -3360 -192 0
v -3392 -224 0
v -3424 -224 0
v -3424 -192 0
v -3392 -192 0
v -3424 -224 0
v -3456 -224 0
v -3456 -192 0
v -3424 -192 0
v -3456 -224 0
v -3488 -224 0
v -3488 -192 0
v -3456 -192 0
v -3488 -224 0
v -3520 -224 0
v -3520 -192 0
v -3488 -192 0
v -3520 -224 0
v -3552 -224 0
v -3552 -192 0
v -3520 -192 0
v -3552 -224 0
v -3584 -224 0
v -3584 -192 0
v -3552 -192 0
v -3584 -224 0
v -3616 -224 0
v -3616 -192 0
v -3584 -192 0
v -3616 -224 0
v -3648 -224 0
v -3648 -192 0
v -3616 -192 0
v -3648 -224 0
v -3680 -224 0
v -3680 -192 0
v -3648 -192 0
v -3680 -224 0
v -3712 -224 0
v -3712 -192 0
v -3680 -192 0
v -3712 -224 0
v -3744 -224 0
v -3744 -192 0
v -3712 -192 0
v -3744 -224 0
v -3776 -224 0
v -3776 -192 0
v -3744 -192 0
v -3776 -224 0
v -3808 -224 0
v -3808 -192 0
v -3776 -192 0
v -3808 -224 0
v -3840 -224 0
v -3840 -192 0
v -3808 -192 0
v -3840 -224 0
v -3872 -224 0
v -3872 -192 0
v -3840 -192 0
v -3872 -224 0
v -3904 -224 0
v -3904 -192 0
v -3872 -192 0
v -3904 -224 0
v -3936 -224 0
v -3936 -192 0
v -3904 -192 0
v -3936 -224 0
v -3968 -224 0
v -3968 -192 0
v -3936 -192 0
v -3968 -224 0
v -4000 -224 0
v -4000 -192 0
v -3968 -192 0
v -4000 -224 0
v -4032 -224 0
v -4032 -192 0
v -4000 -192 0
v -4032 -224 0
v -4064 -224 0
v -4064 -192 0
v -4032 -192 0
v -4064 -224 0
v -4096 -224 0
v -4096 -192 0
v -4064 -192 0
v -4096 -224 0
v -4128 -224 0
v -4128 -192 0
v -4096 -192 0
v -4128 -224 0
v -4160 -224 0
v -4160 -192 0
v -4128 -192 0
v -4160 -224 0
v -4192 -224 0
v -4192 -192 0
v -4160 -192 0
v -4192 -224 0
v -4224 -224 0
v -4224 -192 0
v -4192 -192 0
v -4224 -224 0
v -4256 -224 0
v -4256 -192 0
v -4224 -192 0
v -4256 -224 0
v -4288 -224 0
v -4288 -192 0
v -4256 -192 0
v -4288 -224 0
v -4320 -224 0
v -4320 -192 0
v -4288 -192 0
v -4320 -224 0
v -4352 -224 0
v -4352 -192 0
v -4320 -192 0
v -4352 -224 0
v -4384 -224 0
v -4384 -192 0
v -4352 -192 0
v -4384 -224 0
v -4416 -224 0
v -4416 -192 0
v -4384 -192 0
v -4416 -224 0
v -4448 -224 0
v -4448 -192 0
v -4416 -192 0
v -4448 -224 0
v -4480 -224 0
v -4480 -192 0
v -4448 -192 0
v -4480 -224 0
v -4512 -224 0
v -4512 -192 0
v -4480 -192 0
v -4512 -224 0
v -4544 -224 0
v -4544 -192 0
v -4512 -192 0
v -4544 -224 0
v -4576 -224 0
v -4576 -192 0
v -4544 -192 0
v -4576 -224 0
v -4608 -224 0
v -4608 -192 0
v -4576 -192 0
v -4608 -224 0
v -4640 -224 0
v -4640 -192 0
v -4608 -192 0
v -4640 -224 0
v -4672 -224 0
v -4672 -192 0
v -4640 -192 0
v -4672 -224 0
v -4704 -224 0
v -4704 -192 0
v -4672 -192 0
v -4704 -224 0
v -4736 -224 0
v -4736 -192 0
v -4704 -192 0
v -4736 -224 0
v -4768 -224 0
v -4768 -192 0
v -4736 -192 0
v -4768 -224 0
v -4800 -224 0
v -4800 -192 0
v -4768 -192 0
v -4800 -224 0
v -4832 -224 0
v -4832 -192 0
v -4800 -192 0
v -4832 -224 0
v -4864 -224 0
v -4864 -192 0
v -4832 -192 0
v -4864 -224 0
v -4896 -224 0
v -4896 -192 0
v -4864 -192 0
v -4896 -224 0
v -4928 -224 0
v -4928 -192 0
v -4896 -192 0
v -4928 -224 0
v -4960 -224 0
v -4960 -192 0
v -4928 -192 0
v -4960 -224 0
v -4992 -224 0
v -4992 -192 0
v -4960 -192 0
v -4992 -224 0
v -5024 -224 0
v -5024 -192 0
v -4992 -192 0
v -5024 -224 0
v -5056 -224 0
v -5056 -192 0
v -5024 -192 0
v -5056 -224 0
v -5088 -224 0
v -5088 -192 0
v -5056 -192 0
v -5088 -224 0
v -5120 -224 0
v -5120 -192 0
v -5088 -192 0
v -5120 -224 0
v -5152 -224 0
v -5152 -192 0
v -5120 -192 0
v -5152 -224 0
v -5184 -224 0
v -5184 -192 0
v -5152 -192 0
v -5184 -224 0
v -5216 -224 0
v -5216 -192 0
v -5184 -192 0
v -5216 -224 0
v -5248 -224 0
v -5248 -192 0
v -5216 -192 0
v -5248 -224 0
v -5280 -224 0
v -5280 -192 0
v -5248 -192 0
v -5280 -224 0
v -5312 -224 0
v -5312 -192 0
v -5280 -192 0
v -5312 -224 0
v -5344 -224 0
v -5344 -192 0
v -5312 -192 0
v -5344 -224 0
v -5376 -224 0
v -5376 -192 0
v -5344 -192 0
v -5376 -224 0
v -5408 -224 0
v -5408 -192 0
v -5376 -192 0
v -5408 -224 0
v -5440 -224 0
v -5440 -192 0
v -5408 -192 0
v -5440 -224 0
v -5472 -224 0
v -5472 -192 0
v -5440 -192 0
v -5472 -224 0
v -5504 -224 0
v -5504 -192 0
v -5472 -192 0
v -5504 -224 0
v -5536 -224 0
v -5536 -192 0
v -5504 -192 0
v -5536 -224 0
v -5568 -224 0
v -5568 -192 0
v -5536 -192 0
v -5568 -224 0
v -5600 -224 0
v -5600 -192 0
v -5568 -192 0
v -5600 -224 0
v -5632 -224 0
v -5632 -192 0
v -5600 -192 0
v -5632 -224 0
v -5664 -224 0
v -5664 -192 0
v -5632 -192 0
v -5664 -224 0
v -5696 -224 0
v -5696 -192 0
v -5664 -192 0
v -5696 -224 0
v -5728 -224 0
v -5728 -192 0
v -5696 -192 0
v -5728 -224 0
v -5760 -224 0
v -5760 -192 0
v -5728 -192 0
v -5760 -224 0
v -5792 -224 0
v -5792 -192 0
v -5760 -192 0
v -5792 -224 0
v -5824 -224 0
v -5824 -192 0
v -5792 -192 0
v -5824 -224 0
v -5856 -224 0
v -5856 -192 0
v -5824 -192 0
v -5856 -224 0
v -5888 -224 0
v -5888 -192 0
v -5856 -192 0
v -5888 -224 0
v -5920 -224 0
v -5920 -192 0
v -5888 -192 0
v -5920 -224 0
v -5952 -224 0
v -5952 -192 0
v -5920 -192 0
v -5952 -224 0
v -5984 -224 0
v -5984 -192 0
v -5952 -192 0
v -5984 -224 0
v -6016 -224 0
v -6016 -192 0
v -5984 -192 0
v -6016 -224 0
v -6048 -224 0
v -6048 -192 0
v -6016 -192 0
v -6048 -224 0
v -6080 -224 0
v -6080 -192 0
v -6048 -192 0
v -6080 -224 0
v -6112 -224 0
v -6112 -192 0
v -6080 -192 0
v -6112 -224 0
v -6144 -224 0
v -6144 -192 0
v -6112 -192 0
v -6144 -224 0
v -6176 -224 0
v -6176 -192 0
v -6144 -192 0
v -6176 -224 0
v -6208 -224 0
v -6208 -192 0
v -6176 -192 0
v -6208 -224 0
v -6240 -224 0
v -6240 -192 0
v -6208 -192 0
v -6240 -224 0
v -6272 -224 0
v -6272 -192 0
v -6240 -192 0
v -6272 -224 0
v -6304 -224 0
v -6304 -192 0
v -6272 -192 0
v -6304 -224 0
v -6336 -224 0
v -6336 -192 0
v -6304 -192 0
v -6336 -224 0
v -6368 -224 0
v -6368 -192 0
v -6336 -192 0
v -6368 -224 0
v -6400 -224 0
v -6400 -192 0
v -6368 -192 0
v -6400 -224 0
v -6432 -224 0
v -6432 -192 0
v -6400 -192 0
v -6432 -224 0
v -6464 -224 0
v -6464 -192 0
v -6432 -192 0
v -6464 -224 0
v -6496 -224 0
v -6496 -192 0
v -6464 -192 0
v -6496 -224 0
v -6528 -224 0
v -6528 -192 0
v -6496 -192 0
v -6528 -224 0
v -6560 -224 0
v -6560 -192 0
v -6528 -192 0
v -6560 -224 0
v -6592 -224 0
v -6592 -192 0
v -6560 -192 0
v -6592 -224 0
v -6624 -224 0
v -6624 -192 0
v -6592 -192 0
v -6624 -224 0
v -6656 -224 0
v -6656 -192 0
v -6624 -192 0
v -6656 -224 0
v -6688 -224 0
v -6688 -192 0
v -6656 -192 0
v -6688 -224 0
v -6720 -224 0
v -6720 -192 0
v -6688 -192 0
v -6720 -224 0
v -6752 -224 0
v -6752 -192 0
v -6720 -192 0
v -6752 -224 0
v -6784 -224 0
v -6784 -192 0
v -6752 -192 0
v -6784 -224 0
v -6816 -224 0
v -6816 -192 0
v -6784 -192 0

# Texture cooridinates (Count = 16)
vt 0.1 0.3333333
vt 0.2 0.3333333
vt 0.2 0.5
vt 0.1 0.5
vt 0.3 0.3333333
vt 0.3 0.5
vt 0.4 0.6666666
vt 0.5 0.6666666
vt 0.5 0.8333333
vt 0.4 0.8333333
vt 0.4 0.5
vt 0.5 0.5
vt 0.4 0
vt 0.5 0
vt 0.5 0.1666667
vt 0.4 0.1666667

# Normal
vn 0 0 -1

# Mesh description
g level1_mesh_0007

# Faces
f 1/1/1 2/2/1 3/3/1 4/4/1
f 5/2/1 6/5/1 7/6/1 8/3/1
f 9/7/1 10/8/1 11/9/1 12/10/1
f 13/7/1 14/8/1 15/9/1 16/10/1
f 17/7/1 18/8/1 19/9/1 20/10/1
f 21/7/1 22/8/1 23/9/1 24/10/1
f 25/7/1 26/8/1 27/9/1 28/10/1
f 29/7/1 30/8/1 31/9/1 32/10/1
f 33/7/1 34/8/1 35/9/1 36/10/1
f 37/7/1 38/8/1 39/9/1 40/10/1
f 41/7/1 42/8/1 43/9/1 44/10/1
f 45/7/1 46/8/1 47/9/1 48/10/1
f 49/7/1 50/8/1 51/9/1 52/10/1
f 53/7/1 54/8/1 55/9/1 56/10/1
f 57/7/1 58/8/1 59/9/1 60/10/1
f 61/11/1 62/12/1 63/8/1 64/7/1
f 65/11/1 66/12/1 67/8/1 68/7/1
f 69/11/1 70/12/1 71/8/1 72/7/1
f 73/11/1 74/12/1 75/8/1 76/7/1
f 77/11/1 78/12/1 79/8/1 80/7/1
f 81/11/1 82/12/1 83/8/1 84/7/1
f 85/11/1 86/12/1 87/8/1 88/7/1
f 89/11/1 90/12/1 91/8/1 92/7/1
f 93/11/1 94/12/1 95/8/1 96/7/1
f 97/11/1 98/12/1 99/8/1 100/7/1
f 101/11/1 102/12/1 103/8/1 104/7/1
f 105/11/1 106/12/1 107/8/1 108/7/1
f 109/11/1 110/12/1 111/8/1 112/7/1
f 113/11/1 114/12/1 115/8/1 116/7/1
f 117/11/1 118/12/1 119/8/1 120/7/1
f 121/11/1 122/12/1 123/8/1 124/7/1
f 125/11/1 126/12/1 127/8/1 128/7/1
f 129/11/1 130/12/1 131/8/1 132/7/1
f 133/11/1 134/12/1 135/8/1 136/7/1
f 137/11/1 138/12/1 139/8/1 140/7/1
f 141/11/1 142/12/1 143/8/1 144/7/1
f 145/11/1 146/12/1 147/8/1 148/7/1
f 149/11/1 150/12/1 151/8/1 152/7/1
f 153/11/1 154/12/1 155/8/1 156/7/1
f 157/11/1 158/12/1 159/8/1 160/7/1
f 161/11/1 162/12/1 163/8/1 164/7/1
f 165/11/1 166/12/1 167/8/1 168/7/1
f 169/11/1 170/12/1 171/8/1 172/7/1
f 173/11/1 174/12/1 175/8/1 176/7/1
f 177/11/1 178/12/1 179/8/1 180/7/1
f 181/13/1 182/14/1 183/15/1 184/16/1
f 185/11/1 186/12/1 187/8/1 188/7/1
f 189/11/1 190/12/1 191/8/1 192/7/1
f 193/11/1 194/12/1 195/8/1 196/7/1
f 197/11/1 198/12/1 199/8/1 200/7/1
f 201/11/1 202/12/1 203/8/1 204/7/1
f 205/11/1 206/12/1 207/8/1 208/7/1
f 209/11/1 210/12/1 211/8/1 212/7/1
f 213/11/1 214/12/1 215/8/1 216/7/1
f 217/11/1 218/12/1 219/8/1 220/7/1
f 221/11/1 222/12/1 223/8/1 224/7/1
f 225/11/1 226/12/1 227/8/1 228/7/1
f 229/11/1 230/12/1 231/8/1 232/7/1
f 233/11/1 234/12/1 235/8/1 236/7/1
f 237/11/1 238/12/1 239/8/1 240/7/1
f 241/11/1 242/12/1 243/8/1 244/7/1
f 245/11/1 246/12/1 247/8/1 248/7/1
f 249/11/1 250/12/1 251/8/1 252/7/1
f 253/11/1 254/12/1 255/8/1 256/7/1
f 257/11/1 258/12/1 259/8/1 260/7/1
f 261/11/1 262/12/1 263/8/1 264/7/1
f 265/11/1 266/12/1 267/8/1 268/7/1
f 269/11/1 270/12/1 271/8/1 272/7/1
f 273/11/1 274/12/1 275/8/1 276/7/1
f 277/11/1 278/12/1 279/8/1 280/7/1
f 281/11/1 282/12/1 283/8/1 284/7/1
f 285/13/1 286/14/1 287/15/1 288/16/1
f 289/13/1 290/14/1 291/15/1 292/16/1
f 293/11/1 294/12/1 295/8/1 296/7/1
f 297/11/1 298/12/1 299/8/1 300/7/1
f 301/11/1 302/12/1 303/8/1 304/7/1
f 305/11/1 306/12/1 307/8/1 308/7/1
f 309/11/1 310/12/1 311/8/1 312/7/1
f 313/11/1 314/12/1 315/8/1 316/7/1
f 317/11/1 318/12/1 319/8/1 320/7/1
f 321/11/1 322/12/1 323/8/1 324/7/1
f 325/11/1 326/12/1 327/8/1 328/7/1
f 329/11/1 330/12/1 331/8/1 332/7/1
f 333/11/1 334/12/1 335/8/1 336/7/1
f 337/11/1 338/12/1 339/8/1 340/7/1
f 341/11/1 342/12/1 343/8/1 344/7/1
f 345/11/1 346/12/1 347/8/1 348/7/1
f 349/11/1 350/12/1 351/8/1 352/7/1
f 353/11/1 354/12/1 355/8/1 356/7/1
f 357/11/1 358/12/1 359/8/1 360/7/1
f 361/11/1 362/12/1 363/8/1 364/7/1
f 365/11/1 366/12/1 367/8/1 368/7/1
f 369/11/1 370/12/1 371/8/1 372/7/1
f 373/11/1 374/12/1 375/8/1 376/7/1
f 377/11/1 378/12/1 379/8/1 380/7/1
f 381/11/1 382/12/1 383/8/1 384/7/1
f 385/11/1 386/12/1 387/8/1 388/7/1
f 389/11/1 390/12/1 391/8/1 392/7/1
f 393/11/1 394/12/1 395/8/1 396/7/1
f 397/11/1 398/12/1 399/8/1 400/7/1
f 401/11/1 402/12/1 403/8/1 404/7/1
f 405/11/1 406/12/1 407/8/1 408/7/1
f 409/11/1 410/12/1 411/8/1 412/7/1
f 413/13/1 414/14/1 415/15/1 416/16/1
f 417/13/1 418/14/1 419/15/1 420/16/1
f 421/11/1 422/12/1 423/8/1 424/7/1
f 425/11/1 426/12/1 427/8/1 428/7/1
f 429/11/1 430/12/1 431/8/1 432/7/1
f 433/11/1 434/12/1 435/8/1 436/7/1
f 437/11/1 438/12/1 439/8/1 440/7/1
f 441/11/1 442/12/1 443/8/1 444/7/1
f 445/11/1 446/12/1 447/8/1 448/7/1
f 449/11/1 450/12/1 451/8/1 452/7/1
f 453/11/1 454/12/1 455/8/1 456/7/1
f 457/11/1 458/12/1 459/8/1 460/7/1
f 461/11/1 462/12/1 463/8/1 464/7/1
f 465/11/1 466/12/1 467/8/1 468/7/1
f 469/11/1 470/12/1 471/8/1 472/7/1
f 473/11/1 474/12/1 475/8/1 476/7/1
f 477/11/1 478/12/1 479/8/1 480/7/1
f 481/11/1 482/12/1 483/8/1 484/7/1
f 485/11/1 486/12/1 487/8/1 488/7/1
f 489/11/1 490/12/1 491/8/1 492/7/1
f 493/13/1 494/14/1 495/15/1 496/16/1
f 497/13/1 498/14/1 499/15/1 500/16/1
f 501/11/1 502/12/1 503/8/1 504/7/1
f 505/11/1 506/12/1 507/8/1 508/7/1
f 509/11/1 510/12/1 511/8/1 512/7/1
f 513/11/1 514/12/1 515/8/1 516/7/1
f 517/11/1 518/12/1 519/8/1 520/7/1
f 521/11/1 522/12/1 523/8/1 524/7/1
f 525/11/1 526/12/1 527/8/1 528/7/1
f 529/11/1 530/12/1 531/8/1 532/7/1
f 533/11/1 534/12/1 535/8/1 536/7/1
f 537/11/1 538/12/1 539/8/1 540/7/1
f 541/11/1 542/12/1 543/8/1 544/7/1
f 545/11/1 546/12/1 547/8/1 548/7/1
f 549/11/1 550/12/1 551/8/1 552/7/1
f 553/11/1 554/12/1 555/8/1 556/7/1
f 557/11/1 558/12/1 559/8/1 560/7/1
f 561/11/1 562/12/1 563/8/1 564/7/1
f 565/11/1 566/12/1 567/8/1 568/7/1
f 569/11/1 570/12/1 571/8/1 572/7/1
f 573/11/1 574/12/1 575/8/1 576/7/1
f 577/11/1 578/12/1 579/8/1 580/7/1
f 581/11/1 582/12/1 583/8/1 584/7/1
f 585/11/1 586/12/1 587/8/1 588/7/1
f 589/11/1 590/12/1 591/8/1 592/7/1
f 593/11/1 594/12/1 595/8/1 596/7/1
f 597/11/1 598/12/1 599/8/1 600/7/1
f 601/11/1 602/12/1 603/8/1 604/7/1
f 605/11/1 606/12/1 607/8/1 608/7/1
f 609/11/1 610/12/1 611/8/1 612/7/1
f 613/11/1 614/12/1 615/8/1 616/7/1
f 617/11/1 618/12/1 619/8/1 620/7/1
f 621/11/1 622/12/1 623/8/1 624/7/1
f 625/11/1 626/12/1 627/8/1 628/7/1
f 629/11/1 630/12/1 631/8/1 632/7/1
f 633/11/1 634/12/1 635/8/1 636/7/1
f 637/11/1 638/12/1 639/8/1 640/7/1
f 641/11/1 642/12/1 643/8/1 644/7/1
f 645/11/1 646/12/1 647/8/1 648/7/1
f 649/11/1 650/12/1 651/8/1 652/7/1
f 653/11/1 654/12/1 655/8/1 656/7/1
f 657/11/1 658/12/1 659/8/1 660/7/1
f 661/11/1 662/12/1 663/8/1 664/7/1
f 665/11/1 666/12/1 667/8/1 668/7/1
f 669/11/1 670/12/1 671/8/1 672/7/1
f 673/11/1 674/12/1 675/8/1 676/7/1
f 677/11/1 678/12/1 679/8/1 680/7/1
f 681/11/1 682/12/1 683/8/1 684/7/1
f 685/11/1 686/12/1 687/8/1 688/7/1
f 689/11/1 690/12/1 691/8/1 692/7/1
f 693/13/1 694/14/1 695/15/1 696/16/1
f 697/13/1 698/14/1 699/15/1 700/16/1
f 701/11/1 702/12/1 703/8/1 704/7/1
f 705/11/1 706/12/1 707/8/1 708/7/1
f 709/11/1 710/12/1 711/8/1 712/7/1
f 713/11/1 714/12/1 715/8/1 716/7/1
f 717/11/1 718/12/1 719/8/1 720/7/1
f 721/11/1 722/12/1 723/8/1 724/7/1
f 725/11/1 726/12/1 727/8/1 728/7/1
f 729/11/1 730/12/1 731/8/1 732/7/1
f 733/11/1 734/12/1 735/8/1 736/7/1
f 737/11/1 738/12/1 739/8/1 740/7/1
f 741/11/1 742/12/1 743/8/1 744/7/1
f 745/11/1 746/12/1 747/8/1 748/7/1
f 749/11/1 750/12/1 751/8/1 752/7/1
f 753/11/1 754/12/1 755/8/1 756/7/1
f 757/11/1 758/12/1 759/8/1 760/7/1
f 761/11/1 762/12/1 763/8/1 764/7/1
f 765/11/1 766/12/1 767/8/1 768/7/1
f 769/11/1 770/12/1 771/8/1 772/7/1
f 773/11/1 774/12/1 775/8/1 776/7/1
f 777/11/1 778/12/1 779/8/1 780/7/1
f 781/11/1 782/12/1 783/8/1 784/7/1
f 785/11/1 786/12/1 787/8/1 788/7/1
f 789/11/1 790/12/1 791/8/1 792/7/1
f 793/11/1 794/12/1 795/8/1 796/7/1
f 797/11/1 798/12/1 799/8/1 800/7/1
f 801/11/1 802/12/1 803/8/1 804/7/1
f 805/11/1 806/12/1 807/8/1 808/7/1
f 809/11/1 810/12/1 811/8/1 812/7/1
f 813/11/1 814/12/1 815/8/1 816/7/1
f 817/11/1 818/12/1 819/8/1 820/7/1
f 821/11/1 822/12/1 823/8/1 824/7/1
f 825/11/1 826/12/1 827/8/1 828/7/1
f 829/11/1 830/12/1 831/8/1 832/7/1
f 833/11/1 834/12/1 835/8/1 836/7/1
f 837/11/1 838/12/1 839/8/1 840/7/1
f 841/11/1 842/12/1 843/8/1 844/7/1
f 845/11/1 846/12/1 847/8/1 848/7/1
f 849/11/1 850/12/1 851/8/1 852/7/1
f 853/11/1 854/12/1 855/8/1 856/7/1
f 857/11/1 858/12/1 859/8/1 860/7/1
f 861/11/1 862/12/1 863/8/1 864/7/1
f 865/11/1 866/12/1 867/8/1 868/7/1
f 869/11/1 870/12/1 871/8/1 872/7/1
f 873/11/1 874/12/1 875/8/1 876/7/1
f 877/11/1 878/12/1 879/8/1 880/7/1
f 881/11/1 882/12/1 883/8/1 884/7/1
f 885/11/1 886/12/1 887/8/1 888/7/1
f 889/11/1 890/12/1 891/8/1 892/7/1
f 893/11/1 894/12/1 895/8/1 896/7/1
f 897/11/1 898/12/1 899/8/1 900/7/1
f 901/11/1 902/12/1 903/8/1 904/7/1
f 905/11/1 906/12/1 907/8/1 908/7/1
f 909/11/1 910/12/1 911/8/1 912/7/1

