# Tiled2Unity generated file. Do not modify by hand.
# Wavefront file for 'level1_mesh_0006.obj'

# Vertices (Count = 144)
v -6208 -32 0
v -6240 -32 0
v -6240 0 0
v -6208 0 0
v -6240 -32 0
v -6272 -32 0
v -6272 0 0
v -6240 0 0
v -6272 -32 0
v -6304 -32 0
v -6304 0 0
v -6272 0 0
v -6304 -32 0
v -6336 -32 0
v -6336 0 0
v -6304 0 0
v -6336 -32 0
v -6368 -32 0
v -6368 0 0
v -6336 0 0
v -6368 -32 0
v -6400 -32 0
v -6400 0 0
v -6368 0 0
v -6208 -64 0
v -6240 -64 0
v -6240 -32 0
v -6208 -32 0
v -6240 -64 0
v -6272 -64 0
v -6272 -32 0
v -6240 -32 0
v -6272 -64 0
v -6304 -64 0
v -6304 -32 0
v -6272 -32 0
v -6304 -64 0
v -6336 -64 0
v -6336 -32 0
v -6304 -32 0
v -6336 -64 0
v -6368 -64 0
v -6368 -32 0
v -6336 -32 0
v -6368 -64 0
v -6400 -64 0
v -6400 -32 0
v -6368 -32 0
v -6208 -96 0
v -6240 -96 0
v -6240 -64 0
v -6208 -64 0
v -6240 -96 0
v -6272 -96 0
v -6272 -64 0
v -6240 -64 0
v -6272 -96 0
v -6304 -96 0
v -6304 -64 0
v -6272 -64 0
v -6304 -96 0
v -6336 -96 0
v -6336 -64 0
v -6304 -64 0
v -6336 -96 0
v -6368 -96 0
v -6368 -64 0
v -6336 -64 0
v -6368 -96 0
v -6400 -96 0
v -6400 -64 0
v -6368 -64 0
v -6208 -128 0
v -6240 -128 0
v -6240 -96 0
v -6208 -96 0
v -6240 -128 0
v -6272 -128 0
v -6272 -96 0
v -6240 -96 0
v -6272 -128 0
v -6304 -128 0
v -6304 -96 0
v -6272 -96 0
v -6304 -128 0
v -6336 -128 0
v -6336 -96 0
v -6304 -96 0
v -6336 -128 0
v -6368 -128 0
v -6368 -96 0
v -6336 -96 0
v -6368 -128 0
v -6400 -128 0
v -6400 -96 0
v -6368 -96 0
v -6208 -160 0
v -6240 -160 0
v -6240 -128 0
v -6208 -128 0
v -6240 -160 0
v -6272 -160 0
v -6272 -128 0
v -6240 -128 0
v -6272 -160 0
v -6304 -160 0
v -6304 -128 0
v -6272 -128 0
v -6304 -160 0
v -6336 -160 0
v -6336 -128 0
v -6304 -128 0
v -6336 -160 0
v -6368 -160 0
v -6368 -128 0
v -6336 -128 0
v -6368 -160 0
v -6400 -160 0
v -6400 -128 0
v -6368 -128 0
v -6208 -192 0
v -6240 -192 0
v -6240 -160 0
v -6208 -160 0
v -6240 -192 0
v -6272 -192 0
v -6272 -160 0
v -6240 -160 0
v -6272 -192 0
v -6304 -192 0
v -6304 -160 0
v -6272 -160 0
v -6304 -192 0
v -6336 -192 0
v -6336 -160 0
v -6304 -160 0
v -6336 -192 0
v -6368 -192 0
v -6368 -160 0
v -6336 -160 0
v -6368 -192 0
v -6400 -192 0
v -6400 -160 0
v -6368 -160 0

# Texture cooridinates (Count = 42)
vt 0 0.8060606
vt 0.1658031 0.8060606
vt 0.1658031 1
vt 0 1
vt 0.3316062 0.8060606
vt 0.3316062 1
vt 0.4974093 0.8060606
vt 0.4974093 1
vt 0.6632124 0.8060606
vt 0.6632124 1
vt 0.8290156 0.8060606
vt 0.8290156 1
vt 0.9948186 0.8060606
vt 0.9948186 1
vt 0 0.6121212
vt 0.1658031 0.6121212
vt 0.3316062 0.6121212
vt 0.4974093 0.6121212
vt 0.6632124 0.6121212
vt 0.8290156 0.6121212
vt 0.9948186 0.6121212
vt 0 0.4181818
vt 0.1658031 0.4181818
vt 0.3316062 0.4181818
vt 0.4974093 0.4181818
vt 0.6632124 0.4181818
vt 0.8290156 0.4181818
vt 0.9948186 0.4181818
vt 0 0.2242424
vt 0.1658031 0.2242424
vt 0.3316062 0.2242424
vt 0.4974093 0.2242424
vt 0.6632124 0.2242424
vt 0.8290156 0.2242424
vt 0.9948186 0.2242424
vt 0 0.030303
vt 0.1658031 0.030303
vt 0.3316062 0.030303
vt 0.4974093 0.030303
vt 0.6632124 0.030303
vt 0.8290156 0.030303
vt 0.9948186 0.030303

# Normal
vn 0 0 -1

# Mesh description
g level1_mesh_0006

# Faces
f 1/1/1 2/2/1 3/3/1 4/4/1
f 5/2/1 6/5/1 7/6/1 8/3/1
f 9/5/1 10/7/1 11/8/1 12/6/1
f 13/7/1 14/9/1 15/10/1 16/8/1
f 17/9/1 18/11/1 19/12/1 20/10/1
f 21/11/1 22/13/1 23/14/1 24/12/1
f 25/15/1 26/16/1 27/2/1 28/1/1
f 29/16/1 30/17/1 31/5/1 32/2/1
f 33/17/1 34/18/1 35/7/1 36/5/1
f 37/18/1 38/19/1 39/9/1 40/7/1
f 41/19/1 42/20/1 43/11/1 44/9/1
f 45/20/1 46/21/1 47/13/1 48/11/1
f 49/22/1 50/23/1 51/16/1 52/15/1
f 53/23/1 54/24/1 55/17/1 56/16/1
f 57/24/1 58/25/1 59/18/1 60/17/1
f 61/25/1 62/26/1 63/19/1 64/18/1
f 65/26/1 66/27/1 67/20/1 68/19/1
f 69/27/1 70/28/1 71/21/1 72/20/1
f 73/29/1 74/30/1 75/23/1 76/22/1
f 77/30/1 78/31/1 79/24/1 80/23/1
f 81/31/1 82/32/1 83/25/1 84/24/1
f 85/32/1 86/33/1 87/26/1 88/25/1
f 89/33/1 90/34/1 91/27/1 92/26/1
f 93/34/1 94/35/1 95/28/1 96/27/1
f 97/36/1 98/37/1 99/30/1 100/29/1
f 101/37/1 102/38/1 103/31/1 104/30/1
f 105/38/1 106/39/1 107/32/1 108/31/1
f 109/39/1 110/40/1 111/33/1 112/32/1
f 113/33/1 114/34/1 115/27/1 116/26/1
f 117/41/1 118/42/1 119/35/1 120/34/1
f 121/36/1 122/37/1 123/30/1 124/29/1
f 125/37/1 126/38/1 127/31/1 128/30/1
f 129/38/1 130/39/1 131/32/1 132/31/1
f 133/39/1 134/40/1 135/33/1 136/32/1
f 137/40/1 138/41/1 139/34/1 140/33/1
f 141/41/1 142/42/1 143/35/1 144/34/1

