# Tiled2Unity generated file. Do not modify by hand.
# Wavefront file for 'level1_mesh_0009.obj'

# Vertices (Count = 96)
v -4480 -128 0
v -4512 -128 0
v -4512 -96 0
v -4480 -96 0
v -4512 -128 0
v -4544 -128 0
v -4544 -96 0
v -4512 -96 0
v -2784 -160 0
v -2816 -160 0
v -2816 -128 0
v -2784 -128 0
v -3744 -160 0
v -3776 -160 0
v -3776 -128 0
v -3744 -128 0
v -3936 -160 0
v -3968 -160 0
v -3968 -128 0
v -3936 -128 0
v -3968 -160 0
v -4000 -160 0
v -4000 -128 0
v -3968 -128 0
v -4416 -160 0
v -4448 -160 0
v -4448 -128 0
v -4416 -128 0
v -4448 -160 0
v -4480 -160 0
v -4480 -128 0
v -4448 -128 0
v -4480 -160 0
v -4512 -160 0
v -4512 -128 0
v -4480 -128 0
v -4512 -160 0
v -4544 -160 0
v -4544 -128 0
v -4512 -128 0
v -4544 -160 0
v -4576 -160 0
v -4576 -128 0
v -4544 -128 0
v -4800 -160 0
v -4832 -160 0
v -4832 -128 0
v -4800 -128 0
v -2784 -192 0
v -2816 -192 0
v -2816 -160 0
v -2784 -160 0
v -3744 -192 0
v -3776 -192 0
v -3776 -160 0
v -3744 -160 0
v -3936 -192 0
v -3968 -192 0
v -3968 -160 0
v -3936 -160 0
v -4416 -192 0
v -4448 -192 0
v -4448 -160 0
v -4416 -160 0
v -4448 -192 0
v -4480 -192 0
v -4480 -160 0
v -4448 -160 0
v -4480 -192 0
v -4512 -192 0
v -4512 -160 0
v -4480 -160 0
v -4512 -192 0
v -4544 -192 0
v -4544 -160 0
v -4512 -160 0
v -4544 -192 0
v -4576 -192 0
v -4576 -160 0
v -4544 -160 0
v -5056 -192 0
v -5088 -192 0
v -5088 -160 0
v -5056 -160 0
v -5952 -192 0
v -5984 -192 0
v -5984 -160 0
v -5952 -160 0
v -5984 -192 0
v -6016 -192 0
v -6016 -160 0
v -5984 -160 0
v -6016 -192 0
v -6048 -192 0
v -6048 -160 0
v -6016 -160 0

# Texture cooridinates (Count = 25)
vt 0.4 0.6666666
vt 0.5 0.6666666
vt 0.5 0.8333333
vt 0.4 0.8333333
vt 0 0.3333333
vt 0.1 0.3333333
vt 0.1 0.5
vt 0 0.5
vt 0.6 0.6666666
vt 0.6 0.8333333
vt 0.3 0.6666666
vt 0.3 0.8333333
vt 0 0
vt 0.1 0
vt 0.1 0.1666667
vt 0 0.1666667
vt 0.4 0.5
vt 0.5 0.5
vt 0.5 0.1666667
vt 0.6 0.1666667
vt 0.6 0.3333333
vt 0.5 0.3333333
vt 0.4 0
vt 0.5 0
vt 0.4 0.1666667

# Normal
vn 0 0 -1

# Mesh description
g level1_mesh_0009

# Faces
f 1/1/1 2/2/1 3/3/1 4/4/1
f 5/5/1 6/6/1 7/7/1 8/8/1
f 9/1/1 10/2/1 11/3/1 12/4/1
f 13/1/1 14/2/1 15/3/1 16/4/1
f 17/2/1 18/9/1 19/10/1 20/3/1
f 21/11/1 22/1/1 23/4/1 24/12/1
f 25/1/1 26/2/1 27/3/1 28/4/1
f 29/13/1 30/14/1 31/15/1 32/16/1
f 33/17/1 34/18/1 35/2/1 36/1/1
f 37/17/1 38/18/1 39/2/1 40/1/1
f 41/13/1 42/14/1 43/15/1 44/16/1
f 45/19/1 46/20/1 47/21/1 48/22/1
f 49/13/1 50/14/1 51/15/1 52/16/1
f 53/17/1 54/18/1 55/2/1 56/1/1
f 57/13/1 58/14/1 59/15/1 60/16/1
f 61/13/1 62/14/1 63/15/1 64/16/1
f 65/13/1 66/14/1 67/15/1 68/16/1
f 69/23/1 70/24/1 71/19/1 72/25/1
f 73/23/1 74/24/1 75/19/1 76/25/1
f 77/13/1 78/14/1 79/15/1 80/16/1
f 81/13/1 82/14/1 83/15/1 84/16/1
f 85/17/1 86/18/1 87/2/1 88/1/1
f 89/17/1 90/18/1 91/2/1 92/1/1
f 93/17/1 94/18/1 95/2/1 96/1/1

